<?xml version="1.0" encoding="utf-8"?>
<!-- Generator: Adobe Illustrator 26.5.0, SVG Export Plug-In . SVG Version: 6.00 Build 0)  -->
<svg version="1.1" id="图层_1" xmlns="http://www.w3.org/2000/svg" xmlns:xlink="http://www.w3.org/1999/xlink" x="0px" y="0px"
	 viewBox="0 0 200 200" style="enable-background:new 0 0 200 200;" xml:space="preserve">
<style type="text/css">
	.st0{fill:#75E6FF;}
	.st1{fill:#625AFF;}
</style>
<g>
	<path class="st0" d="M194.8,91.1L25.6,185.1h169.3V91.1z"/>
	<path class="st1" d="M19.3,55.7v119.6h146.2V82.3H84c-0.9,0-2.7-0.9-3.5-1.8L48.6,55.7H19.3z M86.7,68.1h85.1
		c3.5,0,7.1,2.7,7.1,7.1v106.4c0,3.5-2.7,7.1-7.1,7.1H12.3c-3.5,0-7.1-2.7-7.1-7.1V48.6c0-3.5,2.7-7.1,7.1-7.1h38.1
		c1.8,0,2.7,0.9,4.4,1.8C54.8,43.3,86.7,68.1,86.7,68.1z M55.7,24.7H12.3c-3.5,0-6.2-2.7-6.2-6.2s2.7-7.1,6.2-7.1h45.2
		c1.8,0,2.7,0.9,4.4,1.8l33.7,26.6h75.3c3.5,0,7.1,2.7,7.1,7.1c0,3.5-2.7,7.1-7.1,7.1h-78c-1.8,0-2.7-0.9-4.4-1.8L55.7,24.7z
		 M67.2,135.5L53,129.2l14.2-6.2c2.7-0.9,3.5-3.5,3.5-6.2V116c0-0.9,0-1.8-0.9-1.8c-0.9-2.7-3.5-3.5-6.2-1.8l-24.8,12.4
		c-1.8,0.9-3.5,3.5-3.5,5.3c0,2.7,1.8,4.4,3.5,5.3L63.7,147h1.8c2.7,0,4.4-1.8,4.4-4.4v-0.9C70.8,139,69.9,136.3,67.2,135.5
		L67.2,135.5z M87.6,154.1l19.5-47.9v-1.8c0-2.7-2.7-5.3-5.3-5.3H100c-2.7,0-5.3,1.8-6.2,4.4l-19.5,47.9v1.8c0,2.7,2.7,5.3,5.3,5.3
		h1.8C84,158.5,86.7,156.7,87.6,154.1L87.6,154.1z M116.8,123l14.2,6.2l-14.2,6.2c-2.7,0.9-4.4,3.5-4.4,6.2v2.7
		c0.9,2.7,3.5,3.5,6.2,2.7l24.8-11.5c1.8-0.9,3.5-3.5,3.5-5.3c0-2.7-1.8-4.4-3.5-5.3l-24.8-11.5c-0.9,0-0.9-0.9-1.8-0.9
		c-2.7,0-4.4,1.8-4.4,4.4v0.9C113.3,119.5,114.2,122.2,116.8,123z"/>
</g>
</svg>
